<svg width="170" height="49" viewBox="0 0 170 49" fill="none" xmlns="http://www.w3.org/2000/svg">
<g clip-path="url(#clip0)">
<path d="M36.5444 9.19905C36.5164 8.9474 36.2928 8.83556 36.125 8.8076C35.9572 8.77964 32.602 8.75168 32.602 8.75168C32.602 8.75168 29.778 6.01155 29.4984 5.73194C29.2188 5.45234 28.6875 5.53622 28.4638 5.59214C28.4638 5.59214 27.9326 5.7599 27.0378 6.03951C26.898 5.56418 26.6743 4.97701 26.3668 4.38984C25.3602 2.46056 23.9062 1.45398 22.1168 1.45398C22.0049 1.45398 21.8651 1.45398 21.7533 1.48194C21.6974 1.42602 21.6414 1.3701 21.5855 1.28622C20.8026 0.447403 19.824 0.055956 18.6497 0.0839165C16.3569 0.139838 14.0921 1.78951 12.2188 4.75332C10.9046 6.8224 9.92599 9.42273 9.64638 11.4359C7.01809 12.2467 5.1727 12.806 5.14474 12.8339C3.83059 13.2533 3.77467 13.2813 3.60691 14.5395C3.46711 15.4622 0 42.3323 0 42.3323L29.1069 47.3652L41.7171 44.2336C41.7171 44.2336 36.5724 9.42273 36.5444 9.19905ZM25.5839 6.48688C24.9128 6.6826 24.1579 6.93425 23.3191 7.18589C23.2911 6.03951 23.1513 4.4178 22.6201 3.01977C24.3816 3.3553 25.2204 5.31254 25.5839 6.48688ZM21.8092 7.66122C20.2714 8.13655 18.6217 8.63984 16.9441 9.17109C17.4194 7.38161 18.3141 5.59214 19.4046 4.4178C19.824 3.97043 20.3832 3.4951 21.0543 3.2155C21.6974 4.52964 21.8092 6.403 21.8092 7.66122ZM18.6776 1.62175C19.2089 1.62175 19.6562 1.73359 20.0477 1.98523C19.4326 2.2928 18.8174 2.76813 18.2582 3.38326C16.8043 4.94905 15.6859 7.35365 15.2385 9.70234C13.8405 10.1217 12.4984 10.5412 11.2401 10.9326C12.0789 7.24181 15.1546 1.73359 18.6776 1.62175Z" fill="#95BF47"/>
<path d="M36.125 8.80751C35.9572 8.77955 32.602 8.75159 32.602 8.75159C32.602 8.75159 29.778 6.01146 29.4984 5.73185C29.3865 5.62001 29.2467 5.56409 29.1069 5.56409V47.3651L41.7171 44.2335C41.7171 44.2335 36.5724 9.4506 36.5444 9.19896C36.4885 8.94731 36.2928 8.83547 36.125 8.80751Z" fill="#5E8E3E"/>
<path d="M22.1168 15.2944L20.6628 20.7747C20.6628 20.7747 19.0411 20.0197 17.0839 20.1596C14.2319 20.3273 14.2039 22.1168 14.2319 22.5921C14.3997 25.0526 20.8306 25.5839 21.1941 31.3158C21.4737 35.8454 18.7895 38.9211 14.9309 39.1727C10.2895 39.4523 7.74506 36.7401 7.74506 36.7401L8.72367 32.574C8.72367 32.574 11.296 34.5033 13.3372 34.3915C14.6793 34.3076 15.1546 33.2171 15.0987 32.4342C14.903 29.2467 9.64637 29.4145 9.31085 24.1859C9.03124 19.7681 11.9391 15.2944 18.3421 14.875C20.8585 14.6513 22.1168 15.2944 22.1168 15.2944Z" fill="white"/>
<path d="M58.801 26.9818C57.347 26.1989 56.5921 25.5279 56.5921 24.6052C56.5921 23.4308 57.6266 22.6759 59.2763 22.6759C61.1776 22.6759 62.8553 23.4588 62.8553 23.4588L64.1974 19.3766C64.1974 19.3766 62.9671 18.4259 59.3602 18.4259C54.3273 18.4259 50.8322 21.3058 50.8322 25.3601C50.8322 27.6529 52.4539 29.4144 54.6349 30.6726C56.3964 31.6792 57.0115 32.3782 57.0115 33.4407C57.0115 34.5312 56.1447 35.3979 54.4951 35.3979C52.0625 35.3979 49.7697 34.1397 49.7697 34.1397L48.3438 38.222C48.3438 38.222 50.4688 39.6479 54.0197 39.6479C59.1924 39.6479 62.9112 37.1035 62.9112 32.518C62.9391 30.0295 61.0658 28.268 58.801 26.9818ZM79.4359 18.37C76.8915 18.37 74.8783 19.5723 73.3405 21.4177L73.2566 21.3897L75.4655 9.81406H69.7056L64.1135 39.2565H69.8734L71.8026 29.1907C72.5576 25.3881 74.5148 23.0394 76.3602 23.0394C77.6464 23.0394 78.1497 23.9062 78.1497 25.1644C78.1497 25.9473 78.0658 26.9259 77.898 27.7088L75.7171 39.2285H81.477L83.7418 27.3174C83.9934 26.0591 84.1612 24.5493 84.1612 23.5706C84.1612 20.3552 82.4276 18.37 79.4359 18.37ZM97.1908 18.37C90.2566 18.37 85.6711 24.6331 85.6711 31.6233C85.6711 36.097 88.4391 39.6759 93.6118 39.6759C100.406 39.6759 105.02 33.5805 105.02 26.4226C104.992 22.3124 102.559 18.37 97.1908 18.37ZM94.3388 35.2581C92.3816 35.2581 91.5428 33.5805 91.5428 31.5114C91.5428 28.2121 93.2484 22.8157 96.3799 22.8157C98.4211 22.8157 99.0921 24.5772 99.0921 26.2828C99.0921 29.8338 97.3865 35.2581 94.3388 35.2581ZM119.727 18.37C115.84 18.37 113.632 21.7812 113.632 21.7812H113.548L113.883 18.6775H108.794C108.543 20.7746 108.095 23.9341 107.62 26.3108L103.622 47.393H109.382L110.975 38.865H111.087C111.087 38.865 112.262 39.62 114.47 39.62C121.237 39.62 125.655 32.6858 125.655 25.6677C125.683 21.8371 123.949 18.37 119.727 18.37ZM114.219 35.342C112.709 35.342 111.842 34.5032 111.842 34.5032L112.793 29.1068C113.464 25.5279 115.337 23.1233 117.35 23.1233C119.112 23.1233 119.643 24.745 119.643 26.3108C119.643 30.0295 117.434 35.342 114.219 35.342ZM133.903 10.1216C132.058 10.1216 130.604 11.5756 130.604 13.4769C130.604 15.1825 131.694 16.3568 133.316 16.3568H133.4C135.189 16.3568 136.755 15.1545 136.783 13.0016C136.783 11.3239 135.664 10.1216 133.903 10.1216ZM125.85 39.2565H131.61L135.525 18.8453H129.709L125.85 39.2565ZM150.176 18.7894H146.178L146.373 17.8387C146.709 15.8815 147.883 14.12 149.785 14.12C150.819 14.12 151.63 14.3996 151.63 14.3996L152.748 9.89794C152.748 9.89794 151.742 9.39465 149.617 9.39465C147.576 9.39465 145.535 9.98182 143.969 11.3239C142.012 13.0016 141.089 15.4062 140.613 17.8387L140.446 18.7894H137.762L136.923 23.1233H139.607L136.559 39.2565H142.319L145.367 23.1233H149.337L150.176 18.7894ZM164.044 18.8453C164.044 18.8453 160.438 27.9325 158.816 32.8815H158.732C158.62 31.2877 157.306 18.8453 157.306 18.8453H151.266L154.734 37.6068C154.817 38.0262 154.762 38.2779 154.622 38.5575C153.951 39.8437 152.832 41.1019 151.49 42.0246C150.4 42.8075 149.197 43.3108 148.219 43.6463L149.812 48.5394C150.987 48.2877 153.391 47.3371 155.461 45.4078C158.089 42.9473 160.521 39.1447 163.01 33.972L170.056 18.8453H164.044Z" fill="black"/>
</g>
<defs>
<clipPath id="clip0">
<rect width="170" height="48.5674" fill="white"/>
</clipPath>
</defs>
</svg>
